<svg width="1440" height="1024" viewBox="0 0 1440 1024" fill="none" xmlns="http://www.w3.org/2000/svg">
<path fill-rule="evenodd" clip-rule="evenodd" d="M1059.63 56.6544C1089.52 192.1 1152.65 319.638 1129.9 456.455C1104.5 609.171 1068.15 800.028 925.864 860.948C779.886 923.45 636.788 746.488 478.373 735.409C337.818 725.579 200.567 857.302 71.3141 801.183C-62.2316 743.2 -122.451 588.754 -173.492 452.38C-226.741 310.107 -281.907 151.381 -224.528 10.7415C-168.181 -127.364 -21.8679 -207.165 117.381 -260.556C233.679 -305.147 358.853 -240.837 481.905 -260.12C643.648 -285.467 799.534 -468.676 943.107 -389.953C1081.38 -314.137 1025.65 -97.352 1059.63 56.6544Z" fill="url(#paint0_linear)"/>
<path fill-rule="evenodd" clip-rule="evenodd" d="M581.155 234.838C616.534 119.736 548.677 -13.9495 609.314 -117.973C674.618 -230.005 787.88 -342.103 917.454 -342.092C1049.97 -342.081 1108.47 -153.815 1236.03 -117.922C1379.27 -77.6133 1590.82 -253.364 1673.28 -129.408C1758.92 -0.662012 1515.88 140.69 1510.92 295.308C1506.92 419.789 1678.68 513.428 1648.76 634.331C1619.81 751.348 1487.06 819.146 1372.27 855.672C1267.05 889.151 1159.35 833.126 1049.25 825.095C941.802 817.256 835.202 843.113 732.998 809.036C603.343 765.807 422.251 736.609 387.285 604.382C350.991 467.136 539.439 370.56 581.155 234.838Z" fill="url(#paint1_linear)"/>
<defs>
<linearGradient id="paint0_linear" x1="1018.3" y1="-549.355" x2="-23.6625" y2="1281.6" gradientUnits="userSpaceOnUse">
<stop stop-color="#9BAFD9"/>
<stop offset="0.349151" stop-color="#103783"/>
</linearGradient>
<linearGradient id="paint1_linear" x1="279.425" y1="720.17" x2="1892.3" y2="-294.515" gradientUnits="userSpaceOnUse">
<stop stop-color="#103783"/>
<stop offset="1" stop-color="#9BAFD9" stop-opacity="0.92"/>
</linearGradient>
</defs>
</svg>
